Coordinates
version=1
nRows=14
nColumns=24
inDegrees=yes

Units are S.I. units (second, meters, Newtons, ...)
Angles are in degrees.

endheader
time	pelvis_tilt	pelvis_list	pelvis_rotation	pelvis_tx	pelvis_ty	pelvis_tz	hip_flexion_r	hip_adduction_r	hip_rotation_r	knee_angle_r	ankle_angle_r	subtalar_angle_r	mtp_angle_r	hip_flexion_l	hip_adduction_l	hip_rotation_l	knee_angle_l	ankle_angle_l	subtalar_angle_l	mtp_angle_l	lumbar_extension	lumbar_bending	lumbar_rotation
      0.01000000	     61.48607607	      5.31535868	      9.20510807	      0.77094973	      1.08227780	     -0.27322848	     -3.44503320	    -12.48558017	     -4.38384519	    -54.17904893	    -16.15377248	      0.35639713	     47.13600914	     16.54079491	    -14.76706467	     11.95489321	    -13.77616822	    -20.71857914	     15.34870980	    -32.71273900	      0.00000000	      0.00000000	      0.00000000
      0.02000000	     61.48416418	      5.31824357	      9.20871970	      0.77093612	      1.08228057	     -0.27321135	     -3.44724212	    -12.48157939	     -4.37826593	    -54.15822665	    -16.13221517	      0.33034097	     47.13355360	     16.55205680	    -14.76677152	     11.94144760	    -13.77551303	    -20.77131089	     15.35677437	    -32.70682295	      0.00000000	      0.00000000	      0.00000000
      0.03000000	     61.48229396	      5.31944947	      9.21007327	      0.77093126	      1.08227211	     -0.27320756	     -3.44574243	    -12.47948413	     -4.37657405	    -54.14201517	    -16.12234932	      0.31831636	     47.13032944	     16.55790988	    -14.76671976	     11.93746517	    -13.77073703	    -20.79746160	     15.34938200	    -32.70045943	      0.00000000	      0.00000000	      0.00000000
      0.04000000	     61.48061830	      5.31938107	      9.21027396	      0.77093212	      1.08225985	     -0.27321054	     -3.44183022	    -12.47839779	     -4.37722480	    -54.12877455	    -16.12010820	      0.31645881	     47.12673811	     16.56071187	    -14.76621653	     11.94081072	    -13.76386090	    -20.80571178	     15.33279242	    -32.69403261	      0.00000000	      0.00000000	      0.00000000
      0.05000000	     61.47913508	      5.31859308	      9.21029013	      0.77093290	      1.08225287	     -0.27321312	     -3.43697475	    -12.47745219	     -4.37865899	    -54.11690430	    -16.12127287	      0.32071491	     47.12323616	     16.56293946	    -14.76484461	     11.94905235	    -13.75689112	    -20.80511232	     15.31389427	    -32.68817462	      0.00000000	      0.00000000	      0.00000000
      0.06000000	     61.47759823	      5.31761283	      9.21066277	      0.77092863	      1.08225450	     -0.27321322	     -3.43238962	    -12.47612892	     -4.37981782	    -54.10539865	    -16.12268655	      0.32788917	     47.12021714	     16.56629472	    -14.76277173	     11.95992817	    -13.75114002	    -20.80261921	     15.29827836	    -32.68370597	      0.00000000	      0.00000000	      0.00000000
      0.07000000	     61.47579028	      5.31667402	      9.21158266	      0.77092052	      1.08226020	     -0.27321254	     -3.42868105	    -12.47438846	     -4.38031259	    -54.09391137	    -16.12271238	      0.33600638	     47.11794546	     16.57130850	    -14.76063192	     11.97150764	    -13.74693051	    -20.80220798	     15.28924920	    -32.68153381	      0.00000000	      0.00000000	      0.00000000
      0.08000000	     61.47383829	      5.31569544	      9.21292379	      0.77091332	      1.08226482	     -0.27321233	     -3.42584907	    -12.47248714	     -4.38037642	    -54.08256821	    -16.12109512	      0.34419134	     47.11654499	     16.57756345	    -14.75915413	     11.98225451	    -13.74362240	    -20.80513780	     15.28766541	    -32.68253063	      0.00000000	      0.00000000	      0.00000000
      0.09000000	     61.47215559	      5.31455189	      9.21421509	      0.77090788	      1.08226757	     -0.27321371	     -3.42367657	    -12.47062614	     -4.38062803	    -54.07180870	    -16.11847540	      0.35228546	     47.11603430	     16.58414974	    -14.75881955	     11.99110365	    -13.73997853	    -20.81082269	     15.29235057	    -32.68742413	      0.00000000	      0.00000000	      0.00000000
      0.10000000	     61.47120393	      5.31327029	      9.21488950	      0.77090259	      1.08226937	     -0.27321611	     -3.42207793	    -12.46880791	     -4.38164022	    -54.06220561	    -16.11580970	      0.36041472	     47.11638442	     16.58998131	    -14.75966618	     11.99751146	    -13.73475265	    -20.81780404	     15.30081223	    -32.69672548	      0.00000000	      0.00000000	      0.00000000
      0.11000000	     61.47131354	      5.31207763	      9.21466796	      0.77089737	      1.08227096	     -0.27321599	     -3.42115511	    -12.46692465	     -4.38358851	    -54.05422027	    -16.11388615	      0.36867447	     47.11757473	     16.59400387	    -14.76133650	     12.00143315	    -13.72718070	    -20.82449883	     15.31006134	    -32.71069690	      0.00000000	      0.00000000	      0.00000000
      0.12000000	     61.47256676	      5.31135748	      9.21369419	      0.77089174	      1.08227253	     -0.27321219	     -3.42112142	    -12.46489012	     -4.38620847	    -54.04804060	    -16.11305476	      0.37700837	     47.11963069	     16.59547535	    -14.76332619	     12.00324298	    -13.71711037	    -20.82964205	     15.31738592	    -32.72933776	      0.00000000	      0.00000000	      0.00000000
      0.13000000	     61.47484638	      5.31139133	      9.21237869	      0.77088495	      1.08227294	     -0.27320816	     -3.42221681	    -12.46274924	     -4.38898426	    -54.04357048	    -16.11321827	      0.38527339	     47.12263157	     16.59433268	    -14.76516358	     12.00362248	    -13.70479134	    -20.83249367	     15.32093843	    -32.75236623	      0.00000000	      0.00000000	      0.00000000
      0.14000000	     61.47794332	      5.31208126	      9.21120287	      0.77087912	      1.08227027	     -0.27320660	     -3.42448600	    -12.46062231	     -4.39144170	    -54.04047439	    -16.11401746	      0.39339561	     47.12668627	     16.59124292	    -14.76643280	     12.00341741	    -13.69068310	    -20.83290715	     15.32000699	    -32.77919122	      0.00000000	      0.00000000	      0.00000000
